<svg version="1.1" xmlns="http://www.w3.org/2000/svg" xmlns:xlink="http://www.w3.org/1999/xlink" x="0px" y="0px" width="58" height="70" viewBox="0 0 58 70" enable-background="new 0 0 58 70" xml:space="preserve">
  <g>
   <path d="M29.137,5.917c-0.75,0-1.353,0.604-1.353,1.354c0,0.697,0.524,1.277,1.217,1.346c0.803,0.079,1.488-0.546,1.488-1.346C30.489,6.521,29.886,5.917,29.137,5.917z"/>
   <path d="M56.22,8.625c-3.733,0-6.771-3.037-6.771-6.771c0-0.747-0.607-1.354-1.354-1.354H10.178c-0.748,0-1.354,0.607-1.354,1.354c0,3.734-3.037,6.771-6.771,6.771c-0.747,0-1.354,0.606-1.354,1.354v22.099c0,17.221,11.226,32.655,28.049,37.698c0.126,0.038,0.257,0.058,0.389,0.058c0.131,0,0.262-0.02,0.389-0.058c16.459-4.937,28.049-20.098,28.049-37.698V9.979C57.574,9.231,56.967,8.625,56.22,8.625z M54.865,32.078c0,16.175-10.321,30.184-25.729,34.985C13.852,62.299,3.408,48.164,3.408,32.078V11.237c4.145-0.595,7.433-3.883,8.028-8.028h35.401c0.596,4.145,3.883,7.433,8.028,8.028V32.078z"/>
   <path d="M51.347,13.025c-2.824-1.237-5.062-3.473-6.297-6.297c-0.217-0.493-0.702-0.811-1.241-0.811h-9.258c-0.748,0-1.354,0.607-1.354,1.354c0,0.747,0.605,1.354,1.354,1.354h8.401c1.43,2.8,3.697,5.065,6.497,6.496v16.957c0,13.252-7.956,24.686-20.313,29.263C16.78,56.764,8.824,45.33,8.824,32.078V15.121c2.8-1.431,5.065-3.696,6.496-6.496h8.402c0.748,0,1.354-0.607,1.354-1.354c0-0.748-0.606-1.354-1.354-1.354h-9.258c-0.538,0-1.024,0.318-1.24,0.811c-1.237,2.824-3.474,5.061-6.297,6.297c-0.493,0.215-0.811,0.702-0.811,1.24v17.813c0,14.517,8.979,27.171,22.569,31.982c0.146,0.051,0.298,0.076,0.452,0.076c0.153,0,0.306-0.025,0.451-0.076c13.579-4.805,22.569-17.452,22.569-31.982V14.265C52.157,13.727,51.84,13.24,51.347,13.025z"/>
   <path d="M29.137,20.271c-6.72,0-12.188,5.467-12.188,12.188c0,6.72,5.467,12.188,12.188,12.188c6.72,0,12.188-5.468,12.188-12.188C41.324,25.738,35.856,20.271,29.137,20.271z M29.137,41.938c-5.227,0-9.479-4.252-9.479-9.479c0-5.227,4.252-9.479,9.479-9.479c5.228,0,9.479,4.252,9.479,9.479C38.615,37.686,34.364,41.938,29.137,41.938z"/>
   <path d="M35.511,28.792c-0.529-0.528-1.386-0.528-1.915,0l-5.813,5.813l-1.75-1.751c-0.529-0.528-1.386-0.528-1.916,0c-0.529,0.529-0.529,1.387,0,1.916l2.708,2.708c0.265,0.263,0.612,0.396,0.958,0.396c0.347,0,0.693-0.134,0.958-0.396l6.771-6.771C36.04,30.179,36.04,29.321,35.511,28.792z"/>
 </g>
</svg>