<svg xmlns="http://www.w3.org/2000/svg" xmlns:xlink="http://www.w3.org/1999/xlink"><symbol id="auto" viewBox="0 0 150 100">
<g fill="#75B72B">
	<g fill="#75B72B">
		<path fill-rule="evenodd" clip-rule="evenodd" d="M58.3,54.8c2.9,1.9,7.6,6.1,8.8,7.7c2.2,2.4,5.8,6.8,6.5,10.5
			c0,0.2,0,0.4-0.1,0.6c-0.1,0.1-0.4,0.2-0.5,0.2c-5.9,0.6-9.4-1.7-11.8-5.6c-1.3-2.2-3.7-8.7-4-12.7c-0.1-0.2,0.1-0.6,0.4-0.7
			C57.8,54.6,58.1,54.6,58.3,54.8L58.3,54.8z M63.3,54.3c1.2,0.4,2.6,0.9,3.4,1.2c2.6,1,4.2,2,6.1,3.3c2.9,2.4,4.7,6.6,3.2,11.3
			c-0.1,0.4-0.4,0.6-0.7,0.6s-0.6-0.2-0.7-0.5c-2.2-5.4-7.4-10.9-12-14.6c-0.4-0.2-0.4-0.6-0.2-1C62.6,54.3,63,54.1,63.3,54.3
			L63.3,54.3z M74.1,76.4c0,0.9,0,1.6-0.1,2.6c-0.1,1.5-0.1,1.5,1,1.5c0.4,0,0.7-0.2,0.7-0.6c0.2-1.9-0.2-4.2,0.5-5.6
			c0.9-1.9,1.3-3,1.8-5.2c2.5-12-11.8-16.8-22.2-18.2c-0.1,0-0.4,0-0.6,0.2c-0.1,0.1-0.2,0.2-0.2,0.5c0.2,5.3,2.2,13,4.2,16.6
			c1.3,2.4,2.7,4.2,5.3,5.8c3.3,2,5.3,1.7,8.8,1.6c0.2-0.1,0.4,0,0.6,0.1C74,76,74.1,76.2,74.1,76.4L74.1,76.4z"/>
		<path d="M75,81c-0.6,0-1,0-1.3-0.3c-0.3-0.3-0.3-0.8-0.2-1.7c0.1-1,0.1-1.7,0.1-2.6c0,0,0-0.1-0.1-0.2
			c0,0,0,0,0-0.1l-0.1,0l-0.1,0l-0.8,0c-3.1,0.1-5.1,0.2-8.3-1.7c-2.6-1.6-4-3.5-5.5-6c-2.1-3.7-4-11.4-4.2-16.8
			c0-0.5,0.2-0.7,0.4-0.9c0.4-0.4,0.8-0.4,1-0.4c4.7,0.6,16.1,2.7,20.9,9.4c1.9,2.7,2.5,5.9,1.8,9.4c-0.5,2.3-1,3.5-1.9,5.3
			c-0.4,0.8-0.4,1.9-0.4,3.1c0,0.8,0,1.6-0.1,2.3C76.2,80.5,75.7,81,75,81z M73.5,75.1c0.2,0,0.4,0.1,0.5,0.2l0.1,0.1l0.3,0.4
			c0.1,0.2,0.2,0.4,0.2,0.7c0,0.9,0,1.6-0.1,2.7c0,0.4-0.1,0.9,0,1c0-0.1,0.8,0,0.8-0.2c0.1-0.7,0.1-1.5,0.1-2.2
			c0-1.3,0-2.6,0.5-3.6c0.8-1.8,1.3-2.9,1.8-5.1c0.7-3.2,0.1-6.1-1.7-8.6c-4.5-6.4-15.6-8.4-20.1-9c0,0-0.1,0-0.2,0.1
			c-0.1,0.1-0.1,0.1-0.1,0.1c0.2,5.1,2.2,12.8,4.1,16.3c1.3,2.4,2.7,4.1,5.1,5.6c3,1.8,4.8,1.7,7.8,1.6l0.7,0
			C73.3,75.1,73.4,75.1,73.5,75.1z M71.2,74.4c-4.6,0-8-1.9-10.4-5.9c-1.4-2.3-3.7-8.7-4.1-12.9c-0.2-0.5,0.2-1.1,0.6-1.3
			c0.4-0.2,0.8-0.2,1.2,0c2.9,1.8,7.7,6.1,9,7.8c1.3,1.4,5.7,6.4,6.6,10.7c0,0.4,0,0.6-0.2,0.9l-0.1,0.1c-0.2,0.2-0.6,0.4-0.8,0.4
			C72.5,74.4,71.8,74.4,71.2,74.4z M57.9,55.2c0,0-0.1,0-0.1,0c-0.1,0-0.1,0.1-0.1,0.2c0.4,4.1,2.7,10.5,4,12.6
			c2.5,4.1,6.2,5.9,11.3,5.3c0,0,0.1,0,0.1-0.1c0-0.1,0-0.1,0-0.3c-0.6-3.2-3.7-7.3-6.4-10.2c-1.2-1.5-5.7-5.7-8.7-7.6
			C58,55.2,58,55.2,57.9,55.2z M75.4,71.2c-0.5,0-0.9-0.3-1.2-0.8c-1.9-4.6-6.3-10-11.9-14.4c-0.3-0.2-0.7-0.6-0.4-1.5l0.1-0.1
			c0.4-0.5,1-0.8,1.6-0.6c1.2,0.3,2.5,0.8,3.5,1.3c2.5,1,4.1,1.9,6.2,3.4c2.8,2.2,5.1,6.4,3.4,11.8C76.4,70.9,75.9,71.2,75.4,71.2z
			 M62.8,54.9c-0.1,0.3,0,0.3,0.1,0.4c5.7,4.6,10.3,10.1,12.2,14.8c0,0,0.1,0.2,0.3,0.2c0,0,0.2,0,0.3-0.3c1.5-4.9-0.6-8.7-3-10.7
			c-2.1-1.4-3.6-2.3-6-3.3c-0.9-0.4-2.3-0.9-3.4-1.2l-0.1,0C63,54.7,62.9,54.8,62.8,54.9z"/>
	</g>
	<g>
		<path fill-rule="evenodd" clip-rule="evenodd" d="M79.4,71.2l-0.5,1.5c1-0.4,4.9-4,5.8-4.8
			c1.3-1.1,2.7-2.4,3.9-3.3c0.4-0.2,0.6-0.2,1-0.1c0.2,0.2,0.4,0.5,0.2,0.9c-0.6,2.7-2.1,5.9-3.2,7.3c-2.5,3.2-4,3.6-8.5,2.7
			c-0.4-0.1-0.6,0.1-0.9,0.4v0.1c-0.1,0.1-0.1,0.4,0,0.6c0.1,0.2,0.2,0.4,0.5,0.4c1.7,0.6,4.7,0.6,6.1,0c5-2.1,7.7-10,8.2-15.7
			c0-0.2,0-0.4-0.1-0.6c-0.1-0.1-0.4-0.2-0.5-0.2c-3.8-0.4-8.2,0.9-11.4,1.9c-0.4,0.1-0.6,0.5-0.5,1l0,0c0.1,0.1,0.2,0.4,0.4,0.4
			c0.2,0.1,0.4,0.1,0.6,0.1c2.5-0.7,4.5-1.6,7.7-1.6c0.1,0,0.2,0,0.2,0c0.4,0.1,0.7-0.1-0.2,0.6l0,0l-6.7,5.9
			c-0.9,0.6-2,1.2-2.1,2.5C79.5,71.1,79.4,71.1,79.4,71.2L79.4,71.2z"/>
		<path d="M81,77.7c-1.2,0-2.4-0.2-3.3-0.5c-0.5,0-0.8-0.5-0.8-0.6c-0.2-0.4-0.2-0.7-0.1-1v-0.1l0.1-0.3
			c0.3-0.3,0.8-0.7,1.4-0.5c1.3,0.3,2.3,0.4,3.1,0.4c2,0,3.1-0.7,4.8-2.9c1-1.2,2.5-4.4,3.1-7.1c0-0.1,0.1-0.2,0-0.3
			c-0.1,0-0.2-0.1-0.4,0.1c-0.6,0.5-1.3,1.1-2,1.7c-0.6,0.5-1.3,1.1-1.9,1.6c-0.5,0.6-4.7,4.5-5.9,4.9l-1,0.4l0.8-2.4
			c0-0.1,0.1-0.2,0.1-0.3c0.2-1.3,1.2-2,2-2.5l0.3-0.2l6.4-5.6c-2.3,0.1-4,0.6-5.8,1.2c-0.4,0.1-0.8,0.2-1.2,0.4l-0.1,0
			c-0.3,0-0.5,0-0.8-0.1c-0.2-0.1-0.4-0.3-0.5-0.4c0,0-0.1-0.1-0.1-0.1l-0.1-0.1l0-0.1c-0.2-0.7,0.2-1.4,0.8-1.6
			c3.6-1.1,7.8-2.3,11.6-1.9c0,0,0,0,0,0c0.2,0,0.6,0.2,0.8,0.4l0.1,0.1c0.2,0.4,0.2,0.6,0.2,0.8c-0.5,6.3-3.4,14-8.5,16.2
			C83.4,77.6,82.3,77.7,81,77.7z M77.7,76.1C77.7,76.1,77.7,76.1,77.7,76.1c0.1,0.2,0.1,0.2,0.1,0.2l0.1,0c1.5,0.6,4.5,0.5,5.8,0
			c4.5-1.9,7.4-9.1,7.9-15.3c0-0.1,0-0.2,0-0.3c0,0-0.1-0.1-0.1-0.1c-3.6-0.3-7.7,0.8-11.2,1.8c-0.1,0-0.2,0.1-0.2,0.3
			c0,0,0,0,0.1,0.1c0,0,0,0,0,0.1l0,0c0.1,0.1,0.2,0.1,0.3,0.1c0.4-0.1,0.7-0.2,1.1-0.3c2-0.6,4-1.3,6.7-1.3l0.4,0c0,0,0.1,0,0.1,0
			c0.1,0,0.5,0,0.6,0.4c0.1,0.4-0.1,0.5-0.8,1.1l-7.1,6.2c-0.8,0.5-1.5,1-1.6,1.9c0,0.2-0.1,0.3-0.2,0.4l0,0.1
			c1.5-1.1,3.7-3.2,4.5-4c0.7-0.6,1.3-1.1,1.9-1.6c0.7-0.6,1.4-1.2,2.1-1.7c0.5-0.4,0.9-0.4,1.4-0.2l0.2,0.1
			c0.3,0.3,0.6,0.7,0.4,1.4c-0.6,2.6-2.1,6-3.3,7.5c-1.9,2.4-3.3,3.3-5.6,3.3c-0.9,0-1.9-0.1-3.4-0.4c-0.1,0-0.2,0-0.3,0.1
			L77.7,76.1C77.7,76.1,77.7,76.1,77.7,76.1z"/>
	</g>
	<g>
		<path d="M71.2,74.4L71.2,74.4c-4.6,0-8-1.9-10.4-5.9c-0.5-0.7-1.1-1.9-1.5-3c-1.3-3.2-2.4-7.1-2.6-9.8
			c-0.1-0.2,0-0.5,0.1-0.8c0.1-0.2,0.3-0.4,0.5-0.5c0.4-0.2,0.8-0.2,1.2,0c2.9,1.8,7.7,6.1,9,7.8c0.8,0.8,1.9,2.2,3,3.6
			c1.9,2.4,3.2,5,3.6,7.1c0,0.4,0,0.6-0.2,0.9l-0.1,0.1c-0.2,0.2-0.6,0.4-0.8,0.4C72.5,74.4,71.8,74.4,71.2,74.4z M57.9,55.2
			c0,0-0.1,0-0.1,0c-0.1,0-0.1,0.1-0.1,0.2c0.3,2.7,1.3,6.6,2.6,9.7c0.4,1,0.9,2.2,1.4,2.9c2.6,4.2,6.2,5.9,11.3,5.4
			c0,0,0.1,0,0.1-0.1c0-0.1,0-0.1,0-0.3c-0.4-1.8-1.7-4.3-3.5-6.6c-1-1.4-2.1-2.7-2.9-3.5c-1.2-1.6-5.7-5.7-8.7-7.6
			C58,55.2,58,55.2,57.9,55.2z"/>
	</g>
	<g>
		<path d="M75.4,71.2c-0.5,0-0.9-0.3-1.2-0.8c-0.6-1.4-1.3-2.7-2.2-4c-2.4-3.8-6-7.5-9.7-10.4
			c-0.3-0.2-0.7-0.6-0.4-1.5l0.1-0.1c0.4-0.5,1-0.8,1.6-0.6c1.2,0.3,2.5,0.8,3.5,1.3c2.5,1,4.1,1.9,6.2,3.4c2.5,2.1,3.9,5,3.9,8.1
			c0,1.3-0.2,2.6-0.5,3.7C76.4,70.9,75.9,71.2,75.4,71.2z M62.8,54.9c-0.1,0.3,0,0.3,0.1,0.4c3.8,2.9,7.4,6.8,10,10.7
			c0.9,1.4,1.6,2.8,2.2,4.2c0,0.1,0.1,0.2,0.3,0.2c0,0,0.2,0,0.3-0.3c0.3-1,0.5-2.2,0.5-3.4c0-2.8-1.3-5.4-3.5-7.3
			c-2.1-1.4-3.6-2.3-6-3.3c-0.9-0.4-2.3-0.9-3.4-1.2l-0.1,0C63,54.7,62.9,54.8,62.8,54.9z"/>
	</g>
	<g>
		<path d="M115.9,68.8h-21c-0.9,0-1.5-0.7-1.5-1.5s0.7-1.5,1.5-1.5h21c0.9,0,1.5,0.7,1.5,1.5S116.7,68.8,115.9,68.8z
			"/>
	</g>
	<g>
		<path d="M55.1,68.8h-21c-0.9,0-1.5-0.7-1.5-1.5s0.7-1.5,1.5-1.5h21c0.9,0,1.5,0.7,1.5,1.5S56,68.8,55.1,68.8z"/>
	</g>
	<g>
		<path d="M92.3,85.9H57.6c-0.9,0-1.5-0.7-1.5-1.5s0.7-1.5,1.5-1.5h34.7c0.9,0,1.5,0.7,1.5,1.5S93.2,85.9,92.3,85.9z
			"/>
	</g>
	<g>
		<path d="M111.8,64c-0.1,0-0.2,0-0.3,0c-0.8-0.2-1.4-1-1.2-1.8c0.6-2.9,0.9-5.7,0.9-8.3c0-20.2-16.3-36.6-36.2-36.6
			S38.8,33.6,38.8,53.8c0,3.1,0.3,5.7,0.9,8.1c0.2,0.8-0.3,1.7-1.1,1.9c-0.9,0.2-1.7-0.3-1.9-1.1c-0.7-2.7-1-5.6-1-8.9
			c0-21.9,17.6-39.7,39.3-39.7s39.3,17.8,39.3,39.7c0,2.8-0.3,5.9-1,9C113.2,63.5,112.5,64,111.8,64z"/>
	</g>
	<g>
		<path d="M75,55.3c-0.4,0-0.8-0.1-1.1-0.4c-0.6-0.6-0.6-1.6,0-2.2L88.4,38c0.6-0.6,1.6-0.6,2.2,0s0.6,1.6,0,2.2
			L76.1,54.9C75.8,55.2,75.4,55.3,75,55.3z"/>
	</g>
	<g>
		<path d="M75,55.3c-0.4,0-0.8-0.2-1.1-0.5l-9.7-9.8c-0.6-0.6-0.6-1.6,0-2.2c0.6-0.6,1.6-0.6,2.2,0l9.7,9.8
			c0.6,0.6,0.6,1.6,0,2.2C75.8,55.2,75.4,55.3,75,55.3z"/>
	</g>
	<g>
		<path d="M43.8,55.3h-2.5c-0.9,0-1.5-0.7-1.5-1.5c0-0.9,0.7-1.5,1.5-1.5h2.5c0.9,0,1.5,0.7,1.5,1.5
			C45.4,54.6,44.7,55.3,43.8,55.3z"/>
	</g>
	<g>
		<path d="M75,23.9c-0.9,0-1.5-0.7-1.5-1.5v-2.5c0-0.9,0.7-1.5,1.5-1.5s1.5,0.7,1.5,1.5v2.5
			C76.5,23.2,75.9,23.9,75,23.9z"/>
	</g>
	<g>
		<path d="M108.6,55.3H106c-0.9,0-1.5-0.7-1.5-1.5c0-0.9,0.7-1.5,1.5-1.5h2.6c0.9,0,1.5,0.7,1.5,1.5
			C110.2,54.6,109.5,55.3,108.6,55.3z"/>
	</g>
	<g>
		<path d="M75,21.4c-0.4,0-0.8-0.2-1.1-0.5c-0.3-0.3-0.4-0.7-0.4-1.1c0-0.4,0.2-0.8,0.5-1.1c0.5-0.5,1.6-0.6,2.2,0
			c0.3,0.3,0.5,0.6,0.5,1.1c0,0.4-0.2,0.8-0.5,1.1C75.8,21.3,75.4,21.4,75,21.4z"/>
	</g>
	<g>
		<path d="M91.8,26c-0.9,0-1.5-0.7-1.5-1.5s0.7-1.6,1.5-1.6s1.5,0.6,1.5,1.5v0.1C93.4,25.3,92.7,26,91.8,26z"/>
	</g>
	<g>
		<path d="M104.1,38.4c-0.4,0-0.8-0.2-1.1-0.4c-0.3-0.3-0.4-0.7-0.4-1.1c0-0.4,0.2-0.8,0.4-1.1
			c0.6-0.6,1.6-0.6,2.2,0c0.3,0.3,0.5,0.7,0.5,1.1c0,0.4-0.2,0.8-0.4,1.1C104.9,38.2,104.5,38.4,104.1,38.4z"/>
	</g>
	<g>
		<path d="M58.2,26c-0.9,0-1.5-0.7-1.5-1.5s0.7-1.6,1.5-1.6c0.9,0,1.5,0.6,1.5,1.5v0.1C59.7,25.3,59,26,58.2,26z"/>
	</g>
	<g>
		<path d="M45.9,38.4c-0.9,0-1.6-0.7-1.6-1.5c0-0.9,0.6-1.5,1.5-1.5h0.1c0.9,0,1.5,0.7,1.5,1.5
			C47.5,37.7,46.8,38.4,45.9,38.4z"/>
	</g>
	<g>
		<path d="M104.2,38.4c-0.9,0-1.7-0.7-1.7-1.5c0-0.9,0.6-1.5,1.4-1.5h0.2c0.9,0,1.5,0.7,1.5,1.5
			C105.7,37.7,105,38.4,104.2,38.4z"/>
	</g>
</g>
</symbol><symbol id="close" viewBox="0 0 28.72 28.719">
  <g fill-rule="evenodd">
    <path d="M1278.29,492.707l1.42-1.414,27,27-1.42,1.414Zm27.31-1.7,1.39,1.393-26.59,26.584-1.39-1.392Z" transform="translate(-1278.28 -491)"/>
  </g>
</symbol><symbol id="icon 3 (2)" viewBox="0 0 1.03 1.03">
  <g>
    <path d="M.37.07h.66v.07H.37zM.37.48h.66v.07H.37zM.37.88h.66v.07H.37z"/>
    <path d="M0 0h.22v.22H0zM0 .4h.22v.22H0zM0 .81h.22v.22H0z"/>
  </g>
</symbol><symbol id="insta" viewBox="0 0 2.61 2.61">
<g fill="none" stroke-width="0.06" stroke-miterlimit="22.9256">
  <circle cx="1.31" cy="1.31" r="1.28"/>
  <rect x="0.55" y="0.55" width="1.52" height="1.52" rx="0.38" ry="0.38"/>
  <circle cx="1.31" cy="1.31" r="0.39"/>
  <circle cx="1.78" cy="0.83" r="0.1"/>
</g>
</symbol><symbol id="list-style1">
    <path fill-rule="evenodd" d="M13.937 23v-9.063H23V23h-9.063zm0-23H23v9.062h-9.063V0zM0 13.937h9.062V23H0v-9.063zM0 0h9.062v9.062H0V0z"/>
</symbol><symbol id="list-style2" viewBox="0 0 1.03 1.03">
  <g>
    <path d="M.37.07h.66v.07H.37zM.37.48h.66v.07H.37zM.37.88h.66v.07H.37z"/>
    <path d="M0 0h.22v.22H0zM0 .4h.22v.22H0zM0 .81h.22v.22H0z"/>
  </g>
</symbol><symbol id="list-style3">
    <path fill-rule="evenodd" d="M0 23v-3h24v3H0zm0-13h24v3H0v-3zM0 0h24v3H0V0z"/>
</symbol><symbol id="logo-sch" viewBox="0 0 1004.46 283.05">
    <g>
        <path d="M83.75 100.92c18.42 0 30.56 5.86 36.43 17.17 2.51 4.18 2.92 8.79 2.92 14.23 0 14.23-5.86 21.78-16.74 21.78-5.87 0-9.63-2.52-13.4-6.3 2.92-1.66 5.02-4.6 7.53-8.78 2.52-4.18 3.35-8.79 3.35-12.57 0-3.76-1.25-7.95-3.35-10.88-2.51-2.94-5.86-4.6-10.45-4.6-4.61 0-9.22 1.66-13.42 4.6-4.18 3.35-7.95 7.53-11.71 13.4-7.53 12.14-13.82 26.38-18.43 43.96-4.61 17.17-7.11 33.09-7.11 47.32 0 14.23 2.5 24.27 6.28 30.56 4.18 6.28 11.73 9.22 21.35 9.22 19.67 0 35.59-7.96 47.31-23.87l5.02 2.52c-7.53 19.24-21.76 32.23-43.12 39.76-8.79 2.94-16.74 4.61-24.7 4.61h-.42c-17.17 0-30.57-4.61-38.53-13.83C4.61 260.03 0 245.37 0 226.11c0-20.09 3.35-39.78 9.64-59.45 7.53-23.87 19.26-41.04 33.92-52.35 12.56-8.78 25.11-13.39 40.19-13.39z"/>
        <path d="M213.55 236.99h-7.96c-7.12 7.96-13.82 13.82-19.68 18.01-6.28 4.18-13.81 6.27-23.02 6.27-5.04 0-9.22-1.24-12.15-4.18-2.94-2.52-4.19-7.96-4.19-16.32 0-1.69 0-5.03.42-9.22 14.23-1.26 27.63-6.29 38.53-15.48 10.87-9.22 16.32-20.95 16.32-34.77 0-7.11-1.67-12.55-5.87-16.75-4.18-4.18-11.71-6.27-22.59-6.27-7.13 0-13.42 1.67-19.69 4.61-12.14 5.01-21.78 15.06-28.89 27.62-9.21 16.75-13.81 34.75-13.81 52.35 0 13.39 3.34 23.02 10.47 28.88 7.11 5.87 15.49 8.79 27.2 8.79 25.96.43 47.73-13.8 64.91-43.54zm-29.74-57.78c0 10.47-3.34 19.68-10.45 27.64-7.13 7.96-15.08 12.14-24.3 12.56 2.52-12.15 6.29-23.87 11.74-33.5 5.01-10.46 10.87-15.07 16.74-15.5 3.76.84 6.27 3.78 6.27 8.8z"/>
        <path d="M400.28 236.99c-9.62 29.31-24.7 43.97-44.38 43.97-9.2 0-16.32-2.52-20.93-7.13-4.61-5.01-7.13-10.88-7.13-17.15 0-7.13 1.69-17.17 5.04-32.25l3.35-16.75-34.76 72.85h-33.5l-4.18-72.85-2.93 15.08c-1.68 9.63-4.18 18.01-5.86 25.54-1.67 7.53-4.19 13.4-6.28 18.43-5.86 10.45-13.82 15.48-25.55 15.48-8.79 0-15.06-2.94-19.67-8.79-4.61-5.03-7.13-11.72-7.13-18 0-6.29 1.26-10.9 4.19-14.25 2.52-3.34 5.87-4.6 10.47-4.6 4.18 0 7.53 1.26 9.64 3.35 2.5 2.51 3.35 5.03 3.35 9.21 0 4.2-1.26 7.12-2.94 8.79-1.67 1.68-4.18 2.52-6.27 2.52 0 1.68.4 4.18 1.66 5.86 1.26 2.52 4.2 3.35 7.96 3.35 4.18 0 7.53-1.26 9.64-4.18 2.92-2.94 4.61-6.29 6.27-10.9 1.68-4.59 2.92-9.62 4.18-15.49 1.26-5.86 2.52-11.71 3.35-18l12.57-59.03h33.08l5.01 91.28 44.39-91.28h35.18c-9.21 42.71-14.25 67.41-16.34 74.52-1.67 6.29-2.51 10.89-2.51 13.41 0 7.11 3.35 9.62 9.64 9.62 4.6 0 8.78-1.68 11.71-5.86 2.94-3.35 5.86-8.79 8.8-15.49h9.2v-1.26h1.68z"/>
        <path d="M427.91 229.46c-2.5 10.88-5.01 19.67-7.94 26.37-2.94 7.12-7.12 10.47-12.56 10.47s-8.81-2.51-9.22-7.53c2.52.41 4.61-.43 7.13-2.52 1.66-1.68 2.92-4.6 2.92-8.79 0-4.2-1.26-7.12-3.35-9.21-2.52-2.51-5.03-3.35-7.95-3.35-2.93 0-5.04.43-7.54 1.26-5.86 2.92-8.8 8.79-8.8 16.74 0 7.96 2.51 15.09 7.12 20.1 4.61 5.03 11.73 7.53 20.94 7.53 5.02 0 9.2-1.26 13.4-3.35 4.18-2.5 7.53-5.85 10.88-11.71 3.35-5.03 7.54-17.17 11.74-35.6 4.58 0 9.19-.41 13.39-1.26-2.94 12.16-4.2 21.37-4.2 27.64 0 6.28 2.52 11.74 7.12 16.75 4.61 4.61 11.74 7.53 20.93 7.53 19.69 0 33.92-14.23 44.39-43.96h-11.3c-2.93 7.12-5.87 11.73-8.8 15.5-2.92 3.35-7.12 5.85-11.72 5.85-6.28 0-9.63-3.35-9.63-9.62 0-2.52.43-6.27 2.52-13.4 1.67-6.29 7.11-30.99 16.32-74.53h-36.43c-12.14 0-21.76 1.26-30.14 3.35-21.76 5.86-33.07 18.43-33.07 38.1 1.26 15.08 8.79 24.29 23.85 27.64zm41.47-56.1l-9.64 45.63c-1.26.42-1.67.42-2.93.42h-3.35c-4.6 0-8.78-1.25-12.13-4.2-3.36-2.92-5.04-7.53-5.04-15.06 0-7.55 2.52-13.82 7.13-19.26 4.6-5.03 11.71-7.53 21.35-7.53h5.02-.41z"/>
        <path d="M574.05 256.25c0-5.03 1.67-16.74 5.01-33.49H552.7l-12.16 57.36h-34.75l25.55-118.92h33.9l-10.45 47.74h26.36l10.9-47.74h31.81l-12.55 59.05-4.2 18.43c-1.25 4.58-1.66 7.93-1.66 9.62 0 7.12 2.92 9.62 9.62 9.62 4.61 0 8.79-1.67 11.73-5.85 2.93-3.35 5.87-8.81 8.79-15.5h9.63c-9.63 29.31-24.7 43.96-44.38 43.96-9.21 0-16.33-2.5-20.94-7.11-3.76-4.6-5.85-10.47-5.85-17.17z"/>
        <path d="M802.66 236.99h-9.64c-2.93 7.13-5.87 11.73-8.79 15.49-2.92 3.35-7.12 5.86-11.73 5.86-6.27 0-9.62-3.34-9.62-9.62 0-2.51.42-5.03 1.66-9.64l4.2-18.41 12.57-59.04h-15.08c-5.87 2.92-10.88 5.86-15.49 9.21l-28.9 17.17c-5.02 2.93-10.46 5.02-16.32 7.94-2.93-1.24-6.29-1.24-9.22-1.24-3.35 0-6.27 1.24-9.21 2.92-2.93 1.69-4.18 4.61-4.18 7.96 0 3.35 1.25 6.28 3.34 7.96 2.52 1.66 4.61 2.52 7.54 2.52 2.51 0 4.61-.43 6.29-2.52 2.51 2.52 3.35 5.01 3.35 9.21 0 10.88-2.94 20.1-7.96 27.63-5.03 7.53-10.88 11.73-18 11.73-7.13 0-10.48-3.35-10.48-9.64 0-2.93 0-5.02.43-6.27l18-83.75h-33.49l-15.5 76.22c-1.26 4.58-1.67 9.19-1.67 13.8 0 9.64 2.92 17.17 8.79 22.61 5.87 5.03 14.23 7.96 25.54 7.96 17.16 0 30.56-6.28 40.61-19.26 8.79-10.89 12.56-21.76 12.56-33.07 0-10.9-1.66-19.69-5.86-25.55l26.38-15.49-7.53 33.91c-3.37 16.75-5.86 28.48-5.86 34.75 0 6.28 2.49 12.14 7.53 17.17 4.6 4.61 11.73 7.54 20.93 7.54 20.11-2.09 34.34-16.32 44.81-46.06z"/>
        <path d="M796.37 215.44v.2c0 10.05 2.94 17.17 7.55 21.78 4.59 4.61 10.88 7.1 18 7.1 10.88 0 20.93-4.6 28.89-13.39l-1.26 5.86c-1.26 6.27-1.68 11.31-1.68 15.49 0 10.05 2.94 17.17 7.54 21.78 5.44 4.6 11.72 7.12 19.67 7.12 8.39 0 15.51-2.52 22.61-7.55 10.48-7.1 18.43-19.26 24.3-36.41h-9.64c-3.76 13.8-10.46 20.92-19.26 20.92-6.28 0-9.62-2.92-9.62-7.95 0-2.93.83-5.87 1.25-8.79l17.17-80.8h-33.91l-8.81 39.76c-1.24 5.87-3.76 10.9-7.11 15.08-3.34 4.18-7.54 5.86-12.13 5.86-4.61 0-7.13-3.34-7.13-9.63 0-2.5.43-4.19-2.09-7.11l9.22-44.39h-33.92l-7.96 39.78c-1.24 6.18-1.67 11.15-1.68 15.29zM877.6 158.7l-5.02-21.77 4.19 2.51c-3.35-6.29-7.13-13.4-9.22-21.35l5.03 2.92-7.12-17.17 4.61-.41s-3.35-12.56-3.35-13.82c0-1.68 2.92.43 2.92.43l-2.92-12.16 2.51 1.26v-13.4c0-1.26.41-2.51.41-2.51 1.26.42 2.52 2.94 2.52 2.94.42-4.61.42-11.73 3.35-15.49.42-.43 1.67 1.24 1.67 1.24 3.35-19.26 10.89-37.67 18-51.92.42 10.47 0 29.31 1.25 36.86v1.66c0 .43 2.52-1.66 2.52-1.66 0 3.35-1.26 7.95-.41 12.14 0 1.68 4.19-1.69 4.19-1.69l-1.26 10.48 1.67-.41 2.51-1.26s-.41 5.85-1.67 8.79c-1.25 2.92-.42 2.92-.42 2.92l4.61-1.66s-.43 6.27-1.68 10.45c-1.25 4.2-1.67 4.61-1.67 4.61l3.35-1.66s.42 3.35-.43 8.78c-1.25 5.03-2.5 7.53-2.5 7.53l3.35-1.25s0 4.6-1.26 7.96c-1.25 3.34-5.03 9.63-5.03 9.63l5.03-2.51s-1.68 5.03-3.35 7.95c-1.25 3.35-5.03 13.83-5.03 13.83l4.61-2.94s-6.28 19.68-7.13 21.77c-1.25 2.52-1.66 7.96-1.66 7.96h-4.61c-2.92-38.1-1.26-80.4 1.67-119.33-6.27 37.67-8.79 79.55-7.94 119.33l-6.29.42zM761.19 87.1c10.9-.41 21.78 0 32.25 1.25 2.52.43.41-2.51.41-2.51 1.69.42 10.48 4.6 11.74 4.6 2.51.43 1.68-2.51 1.68-2.51 1.66.42 8.78 4.61 10.45 6.29 1.68 1.66 1.26-2.94 1.26-2.94.42 0 7.12 4.6 9.22 7.12.42.42 1.66-.42 1.25-2.92-.42-2.94 6.28 7.53 8.79 8.79 1.69.42 1.69-4.61 1.69-4.61.4.42 5.01 5.03 7.53 11.73 1.26 1.24 2.51-2.94 2.92-2.94 2.94 2.52 5.87 15.49 7.13 7.12 1.25 1.67 1.66 7.12 2.92 8.79.42 1.26 2.51-1.26 2.51-1.26.43 1.26 1.69 7.54 2.52 7.96.43 0 1.26-.42 1.67-2.51 1.25 2.51 1.68 9.63 2.94 12.15.41 0 1.25-.43 1.66-2.52 0-2.51 2.52 12.56 2.94 20.1h-2.51c-15.08-25.54-42.71-49.83-72.02-61.14 35.18 18.43 55.27 46.06 64.49 61.14h-8.81c-4.59-1.26-7.95-3.35-7.95-3.35 2.94-2.52 1.25-1.68-1.67-2.93-2.52-1.26-4.18-1.68-4.18-2.51 0 0 3.34 0 2.5-1.26-1.67-1.68-10.46-3.35-12.14-5.87-.41-.42 4.6-.42 1.68-2.92-1.26-1.26-9.21-2.51-10.9-3.35 0 0 4.61-1.25 3.35-2.94-1.66-1.66-11.71-4.18-13.4-5.86 0 0 5.87-1.67 2.94-2.93-4.19-1.67-10.46-4.61-10.46-4.61s4.18-1.66 3.34-2.51c-1.66-1.67-9.62-4.61-11.73-5.85 0 0 4.2-1.26 2.94-2.51-1.68-1.26-9.64-3.35-12.14-4.61 0 0 3.35-1.26 2.5-2.52-4.59-2.93-9.19-5.87-14.22-7.96-13.83-5.01-17.18-7.1-17.18-7.1l2.09.41z"/>
        <path d="M1003.63 90.44c-10.88-.4-21.76 0-32.24 1.26-2.51.43-.42-2.51-.42-2.51-1.67.42-10.47 4.6-11.71 4.6-2.52.43-1.69-2.51-1.69-2.51-1.67.42-8.79 4.6-10.47 6.29-1.67 1.66-1.26-2.94-1.26-2.94-.41 0-7.1 4.6-9.19 7.12-.43.42-1.69-.41-1.26-2.93.4-2.51-6.29 7.54-8.8 8.8-1.68.42-1.68-4.61-1.68-4.61-.42.42-5.01 5.03-7.53 11.73-1.26 1.24-2.52-2.94-2.94-2.94-2.92 2.51-5.85 15.49-7.11 7.12-1.25 1.67-1.68 7.12-2.94 8.79-1.25 1.26-2.5-1.26-2.5-1.26-.42 1.26-1.68 7.55-2.51 7.96-.43 0-1.26-.41-1.69-2.51-1.26 2.51-2.51 8.8-2.92 11.72-.43 0-1.26 0-1.68-1.68 0-2.5-1.67 10.9-2.5 16.76h3.35c15.49-25.55 41.02-46.9 70.33-58.21-39.78 20.95-58.19 45.22-65.73 58.21h4.19c-1.26 4.59-2.52 10.46-2.52 10.46s12.56-7.11 15.49-10.46c2.51-2.94-1.26-1.68 1.68-2.94 2.52-1.25 4.18-1.66 4.18-2.51 0 0-3.35 0-2.51-1.25 1.68-1.68 10.47-3.36 12.14-5.86.42-.43-4.6-.43-1.67-2.94 1.26-1.26 9.22-2.5 10.88-3.35 0 0-4.61-1.26-3.35-2.92 1.69-1.69 11.73-4.19 13.4-5.87 0 0-5.85-1.67-2.93-2.92 4.19-1.69 10.48-4.61 10.48-4.61s-4.2-1.69-3.35-2.52c1.67-1.66 9.62-4.61 11.71-5.86 0 0-4.18-1.26-2.92-2.52 1.66-1.24 9.62-3.35 12.13-4.59 0 0-3.35-1.26-2.51-2.51 4.61-2.94 9.22-5.87 14.25-7.96 13.8-5.03 17.15-7.13 17.15-7.13h-.83z"/>
        <path d="M983.96 182.98c-4.61-4.61-9.64-9.62-15.51-13.4-1.24-1.26.43-1.26.43-1.26-1.26-.42-6.28-2.51-7.53-2.92-1.26-.42 0-1.68 0-1.68-1.26-.43-5.87-1.67-7.55-1.67-1.67 0 .42-1.68.42-1.68 0-.42-5.02-1.26-7.12-.42-.41 0-.41-1.25.42-1.67 1.26-1.26-6.27.42-7.53 0-1.25 0 1.26-2.93 1.26-2.93-.42 0-4.6 0-7.95 1.67-1.26 0 0-2.51 0-2.51-2.52 0-9.22 4.6-6.3.42-1.25 0-3.35 2.52-4.6 2.93-1.26 0-.41-1.67-.41-1.67-.43 0-4.2 2.92-4.61 2.92-.43-.41-.43-.41 0-1.66-1.68.41-4.61 3.35-6.29 4.6v-1.68c1.26-1.26-7.11 5.03-9.2 7.53v1.26c19.25-5.87 41.03-4.61 59.86 2.94-27.2-7.55-51.92-3.35-60.71-.43.43 1.26 2.52 4.19 2.52 4.19s7.96 1.68 11.73 2.51c-1.68-1.66 0-1.25 2.5-.42 1.26.42 2.94 1.26 2.94.42 0 0-1.68-1.66-.43-1.66 1.26 0 6.29 2.92 7.96 2.92.43 0-1.67-2.51.43-1.68 1.25 0 5.01 2.94 6.27 2.94 0 0-1.66-2.94-.41-2.52 1.67 0 7.11 2.93 8.79 2.93 0 0-1.68-3.35 0-2.5 2.92 1.26 7.11 2.5 7.11 2.5s-1.25-2.5-.41-2.5c1.67 0 6.28 2.5 7.53 2.5 0 0-1.67-2.5-.42-2.5 1.68 0 6.29 2.92 7.55 2.92 0 0-1.26-2.51 0-2.51 3.34.42 7.1 1.26 9.62 2.51 8.79 3.35 10.9 4.19 10.9 4.19l-1.26-2.93z"/>
    </g>
</symbol><symbol id="nav-icon" viewBox="0 0 29 28">
    <path fill-rule="evenodd" d="M0 28v-2h29v2H0zm0-15h29v2H0v-2zM0 0h29v2H0V0z"/>
</symbol><symbol id="profit" viewBox="0 0 512.00078 512">
  <path d="m177.800781 206.921875c3.910157-3.910156 3.910157-10.242187 0-14.140625-3.898437-3.910156-10.230469-3.910156-14.140625 0-3.910156 3.898438-3.910156 10.230469 0 14.140625 3.910156 3.898437 10.242188 3.898437 14.140625 0zm0 0"/>
  <path d="m276.800781 221.0625c11.695313-11.695312 11.695313-30.726562 0-42.421875-11.722656-11.722656-30.707031-11.726563-42.429687 0-11.726563 11.722656-11.726563 30.695313 0 42.421875 11.695312 11.695312 30.730468 11.699219 42.429687 0zm-28.289062-28.28125c3.910156-3.90625 10.238281-3.90625 14.148437 0 3.894532 3.898438 3.894532 10.238281 0 14.136719-3.902344 3.898437-10.25 3.902343-14.148437 0-3.902344-3.898438-3.917969-10.21875 0-14.136719zm0 0"/>
  <path d="m234.371094 291.765625c-11.726563 11.726563-11.726563 30.707031 0 42.433594 11.722656 11.722656 30.703125 11.726562 42.429687 0 11.699219-11.699219 11.699219-30.734375 0-42.433594-11.722656-11.71875-30.707031-11.722656-42.429687 0zm28.289062 28.292969c-3.910156 3.90625-10.242187 3.90625-14.148437 0-3.902344-3.902344-3.917969-10.230469 0-14.148438 3.910156-3.910156 10.238281-3.90625 14.148437 0 3.898438 3.898438 3.898438 10.246094 0 14.148438zm0 0"/>
  <path d="m175.066406 272.519531c1.082032 5.421875 6.355469 8.925781 11.765625 7.84375l141.417969-28.289062c5.414062-1.082031 8.925781-6.351563 7.84375-11.765625-1.082031-5.417969-6.351562-8.925782-11.765625-7.84375l-141.417969 28.289062c-5.417968 1.082032-8.929687 6.351563-7.84375 11.765625zm0 0"/>
  <path d="m304.007812 56.574219c-2.652343 0-5.195312 1.050781-7.070312 2.925781l-104.988281 104.988281c-3.90625 3.90625-3.90625 10.238281 0 14.144531s10.238281 3.90625 14.140625 0l97.917968-97.917968 127.273438 127.277344-224.5 224.5-127.277344-127.273438 70.019532-70.019531c3.90625-3.902344 3.90625-10.234375 0-14.140625-3.90625-3.902344-10.238282-3.902344-14.144532 0l-77.085937 77.089844c-3.90625 3.902343-3.90625 10.234374 0 14.140624l141.417969 141.417969c3.90625 3.90625 10.234374 3.90625 14.140624 0l238.644532-238.644531c3.90625-3.90625 3.90625-10.238281 0-14.144531l-141.417969-141.417969c-1.875-1.875-4.417969-2.925781-7.070313-2.925781zm0 0"/>
  <path d="m494.925781 2.933594-42.921875 42.917968c-25.042968-18.910156-59.625-19.21875-84.457031-.78125l-35.15625-36.175781c-.035156-.035156-.066406-.066406-.101563-.101562-11.664062-11.664063-30.632812-11.789063-42.4375.015625l-281.058593 282.269531c-11.722657 11.722656-11.726563 30.707031 0 42.433594l39.664062 39.660156c-8.859375 25.355469-2.46875 54.101563 16.902344 73.464844 19.367187 19.375 48.113281 25.761719 73.46875 16.910156l39.664063 39.660156c11.722656 11.722657 30.714843 11.71875 42.414062.015625l282.300781-281.089844c11.726563-11.726562 11.726563-30.699218 0-42.421874-.035156-.035157-.066406-.066407-.101562-.101563l-36.171875-35.148437c18.371094-24.664063 18.300781-59.261719-.785156-84.464844l42.917968-42.917969c3.90625-3.90625 3.90625-10.238281 0-14.144531-3.90625-3.90625-10.234375-3.90625-14.140625 0zm-48.78125 135.066406c-1.890625 1.894531-2.945312 4.464844-2.929687 7.144531.019531 2.675781 1.113281 5.234375 3.03125 7.097657l42.859375 41.652343c3.878906 3.921875 3.835937 10.21875-.027344 14.078125l-282.296875 281.089844c-3.902344 3.902344-10.25 3.902344-14.148438 0l-44.351562-44.347656c-1.914062-1.917969-4.476562-2.929688-7.070312-2.929688-1.4375 0-2.886719.308594-4.246094.945313-19.230469 9.023437-42.324219 4.910156-57.460938-10.238281-15.148437-15.136719-19.261718-38.226563-10.238281-57.457032 1.789063-3.816406 1-8.339844-1.980469-11.320312l-44.347656-44.347656c-3.902344-3.902344-3.902344-10.246094.011719-14.164063l281.0625-282.269531c3.890625-3.886719 10.179687-3.910156 14.09375-.042969l41.648437 42.859375c3.734375 3.84375 10.128906 4.21875 14.246094.105469 17.117188-17.125 43.921875-18.953125 63.667969-5.667969l-14.667969 14.667969c-11.152344-5.3125-24.925781-3.363281-34.144531 5.855469-11.695313 11.699218-11.695313 30.734374 0 42.429687 11.722656 11.722656 30.707031 11.726563 42.433593 0 9.429688-9.429687 11.082032-23.261719 5.867188-34.15625l14.664062-14.664063c13.183594 19.515626 11.664063 46.34375-5.675781 63.679688zm-29-43.148438c3.902344 3.902344 3.917969 10.230469 0 14.148438-3.90625 3.90625-10.238281 3.90625-14.144531 0-3.902344-3.902344-3.902344-10.25-.003906-14.148438 3.902344-3.894531 10.25-3.902343 14.148437 0zm0 0"/>
</symbol><symbol id="protection" viewBox="0 0 58 70">
  <g>
   <path d="M29.137,5.917c-0.75,0-1.353,0.604-1.353,1.354c0,0.697,0.524,1.277,1.217,1.346c0.803,0.079,1.488-0.546,1.488-1.346C30.489,6.521,29.886,5.917,29.137,5.917z"/>
   <path d="M56.22,8.625c-3.733,0-6.771-3.037-6.771-6.771c0-0.747-0.607-1.354-1.354-1.354H10.178c-0.748,0-1.354,0.607-1.354,1.354c0,3.734-3.037,6.771-6.771,6.771c-0.747,0-1.354,0.606-1.354,1.354v22.099c0,17.221,11.226,32.655,28.049,37.698c0.126,0.038,0.257,0.058,0.389,0.058c0.131,0,0.262-0.02,0.389-0.058c16.459-4.937,28.049-20.098,28.049-37.698V9.979C57.574,9.231,56.967,8.625,56.22,8.625z M54.865,32.078c0,16.175-10.321,30.184-25.729,34.985C13.852,62.299,3.408,48.164,3.408,32.078V11.237c4.145-0.595,7.433-3.883,8.028-8.028h35.401c0.596,4.145,3.883,7.433,8.028,8.028V32.078z"/>
   <path d="M51.347,13.025c-2.824-1.237-5.062-3.473-6.297-6.297c-0.217-0.493-0.702-0.811-1.241-0.811h-9.258c-0.748,0-1.354,0.607-1.354,1.354c0,0.747,0.605,1.354,1.354,1.354h8.401c1.43,2.8,3.697,5.065,6.497,6.496v16.957c0,13.252-7.956,24.686-20.313,29.263C16.78,56.764,8.824,45.33,8.824,32.078V15.121c2.8-1.431,5.065-3.696,6.496-6.496h8.402c0.748,0,1.354-0.607,1.354-1.354c0-0.748-0.606-1.354-1.354-1.354h-9.258c-0.538,0-1.024,0.318-1.24,0.811c-1.237,2.824-3.474,5.061-6.297,6.297c-0.493,0.215-0.811,0.702-0.811,1.24v17.813c0,14.517,8.979,27.171,22.569,31.982c0.146,0.051,0.298,0.076,0.452,0.076c0.153,0,0.306-0.025,0.451-0.076c13.579-4.805,22.569-17.452,22.569-31.982V14.265C52.157,13.727,51.84,13.24,51.347,13.025z"/>
   <path d="M29.137,20.271c-6.72,0-12.188,5.467-12.188,12.188c0,6.72,5.467,12.188,12.188,12.188c6.72,0,12.188-5.468,12.188-12.188C41.324,25.738,35.856,20.271,29.137,20.271z M29.137,41.938c-5.227,0-9.479-4.252-9.479-9.479c0-5.227,4.252-9.479,9.479-9.479c5.228,0,9.479,4.252,9.479,9.479C38.615,37.686,34.364,41.938,29.137,41.938z"/>
   <path d="M35.511,28.792c-0.529-0.528-1.386-0.528-1.915,0l-5.813,5.813l-1.75-1.751c-0.529-0.528-1.386-0.528-1.916,0c-0.529,0.529-0.529,1.387,0,1.916l2.708,2.708c0.265,0.263,0.612,0.396,0.958,0.396c0.347,0,0.693-0.134,0.958-0.396l6.771-6.771C36.04,30.179,36.04,29.321,35.511,28.792z"/>
 </g>
</symbol><symbol id="quality" viewBox="0 0 512 512">
  <g>
    <path d="M392.327,226.071c0-16.209-13.186-29.394-29.395-29.394H308.91c13.125-14.753,21.703-31.552,23.36-46.623c1.012-9.205-1.832-18.342-7.805-25.069c-5.459-6.149-12.924-9.576-21.02-9.651c-0.094-0.001-0.188-0.001-0.281-0.001c-7.831,0-15.181,3.016-20.728,8.512c-5.548,5.497-8.618,12.82-8.654,20.635c-0.285,1.711-3.295,7.61-10.66,14.614c-6.03,5.736-16.446,13.621-31.825,18.614c-6.03,1.958-11.541,5.563-16.379,10.715c-2.539,2.702-6.341,6.434-11.048,10.18c-2.31-1.224-4.937-1.924-7.728-1.924h-51.307c-9.136,0-16.568,7.432-16.568,16.568v136.818c0,9.136,7.432,16.568,16.568,16.568h51.307c6.228,0,11.659-3.458,14.489-8.551h130.923c13.851,0,25.119-11.268,25.119-25.119c0-4.657-1.273-9.021-3.491-12.765c7.217-4.418,12.042-12.376,12.042-21.44c0-4.657-1.273-9.021-3.491-12.765c7.217-4.418,12.042-12.376,12.042-21.44c0-5.242-1.614-10.114-4.371-14.146C387.197,245.114,392.327,236.18,392.327,226.071z M362.932,239.432h-4.276c-4.427,0-8.017,3.589-8.017,8.017c0,4.427,3.589,8.017,8.017,8.017c5.01,0,9.086,4.076,9.086,9.086s-4.076,9.086-9.086,9.086h-8.551c-4.427,0-8.017,3.589-8.017,8.017c0,4.427,3.589,8.017,8.017,8.017c5.01,0,9.086,4.076,9.086,9.086c0,5.01-4.076,9.086-9.086,9.086h-8.551c-4.427,0-8.017,3.589-8.017,8.017c0,4.427,3.589,8.017,8.017,8.017c5.01,0,9.086,4.076,9.086,9.086c0,5.01-4.076,9.086-9.086,9.086H212.71v-77.495c0-4.427-3.589-8.017-8.017-8.017s-8.017,3.589-8.017,8.017v85.511c0,0.295-0.239,0.534-0.534,0.534h-51.307c-0.295,0-0.534-0.239-0.534-0.534V213.244c0-0.295,0.239-0.534,0.534-0.534h51.307c0.295,0,0.534,0.239,0.534,0.534v17.103c0,4.427,3.589,8.017,8.017,8.017s8.017-3.589,8.017-8.017v-17.103c0-0.389-0.032-0.77-0.059-1.152c6.011-4.653,10.818-9.357,13.954-12.695c2.967-3.161,6.211-5.327,9.642-6.44c18.87-6.126,31.569-15.99,38.898-23.186c9.186-9.019,14.669-18.421,14.669-25.152 c0-3.556,1.387-6.889,3.906-9.385c2.55-2.527,5.927-3.862,9.576-3.867c4.494,0.042,7.47,2.341,9.177,4.263c2.926,3.295,4.366,8.033,3.857,12.672c-1.751,15.929-14.49,35.619-32.454,50.161c-2.639,2.137-3.646,5.705-2.513,8.906c1.133,3.201,4.161,5.341,7.557,5.341h74.01c7.368,0,13.361,5.993,13.361,13.361S370.299,239.432,362.932,239.432z"/>
    <path d="M170.489,316.306c-4.427,0-8.059,3.632-8.059,8.059c0,4.427,3.632,8.059,8.059,8.059c4.427,0,8.059-3.632,8.059-8.059 C178.549,319.939,174.917,316.306,170.489,316.306z"/>
    <path d="M497.71,256l13.772-36.443c1.003-2.651,0.53-5.634-1.243-7.847l-24.359-30.404l1.836-38.915 c0.134-2.83-1.238-5.523-3.606-7.078l-32.562-21.389l-10.278-37.578c-0.748-2.734-2.884-4.87-5.617-5.617l-37.578-10.278 L376.686,27.89c-1.556-2.369-4.248-3.735-7.078-3.606l-38.915,1.836L300.289,1.761c-2.212-1.772-5.195-2.245-7.847-1.243l-36.443,13.772L219.558,0.519c-2.653-1.003-5.635-0.53-7.847,1.243l-30.404,24.359l-38.915-1.836c-2.844-0.134-5.523,1.238-7.078,3.606l-21.388,32.562L76.348,70.731c-2.734,0.748-4.87,2.884-5.617,5.617l-10.278,37.578l-32.562,21.388c-2.369,1.556-3.74,4.248-3.606,7.078l1.836,38.915L1.762,211.711c-1.772,2.212-2.245,5.195-1.243,7.847L14.29,256L0.518,292.442c-1.003,2.651-0.53,5.634,1.243,7.847l24.359,30.404l-1.836,38.915c-0.134,2.83,1.238,5.523,3.606,7.078l32.562,21.389l10.278,37.578c0.748,2.734,2.884,4.87,5.617,5.617l37.578,10.278l21.388,32.562c1.556,2.369,4.253,3.731,7.078,3.606l38.915-1.836l30.404,24.359c2.212,1.773,5.196,2.246,7.847,1.243l36.443-13.772l36.443,13.772c0.92,0.347,1.879,0.517,2.833,0.517c1.796,0,3.569-0.603,5.013-1.76l30.404-24.359l38.915,1.836c2.839,0.126,5.522-1.238,7.078-3.606l21.389-32.562l37.578-10.278c2.734-0.748,4.87-2.884,5.617-5.617l10.278-37.578l32.562-21.389c2.369-1.556,3.74-4.248,3.606-7.078l-1.836-38.915l24.359-30.404c1.772-2.212,2.245-5.195,1.243-7.847L497.71,256zM481.641,258.834l13.226,34.999l-23.394,29.199c-1.221,1.523-1.844,3.44-1.752,5.39l1.764,37.373l-31.271,20.541c-1.631,1.071-2.817,2.702-3.332,4.586l-9.871,36.089l-36.089,9.871c-1.883,0.515-3.513,1.7-4.586,3.332l-20.541,31.271l-37.373-1.764c-1.951-0.09-3.867,0.531-5.39,1.752l-29.199,23.394l-34.999-13.226c-0.913-0.345-1.874-0.517-2.834-0.517c-0.96,0-1.921,0.173-2.834,0.517l-34.999,13.226l-29.199-23.394c-1.523-1.221-3.443-1.842-5.39-1.752l-37.373,1.764l-20.541-31.271c-1.071-1.631-2.702-2.817-4.586-3.332l-36.089-9.871l-9.871-36.089c-0.515-1.883-1.7-3.513-3.332-4.586l-31.271-20.541l1.764-37.373c0.092-1.951-0.531-3.867-1.752-5.39l-23.394-29.199l13.227-34.999c0.69-1.826,0.69-3.842,0-5.668l-13.227-34.999l23.394-29.199c1.221-1.523,1.844-3.44,1.752-5.39l-1.764-37.373l31.271-20.541c1.631-1.071,2.817-2.702,3.332-4.586l9.871-36.089l36.089-9.871c1.883-0.515,3.513-1.7,4.586-3.332l20.541-31.271l37.373,1.764c1.948,0.091,3.867-0.531,5.39-1.752l29.199-23.394l34.999,13.227c1.827,0.69,3.842,0.69,5.668,0l34.999-13.227l29.199,23.394c1.523,1.222,3.441,1.844,5.39,1.752l37.373-1.764l20.541,31.271c1.071,1.631,2.702,2.817,4.586,3.332l36.089,9.871l9.871,36.089c0.515,1.883,1.7,3.513,3.332,4.586l31.271,20.541l-1.764,37.373c-0.092,1.951,0.531,3.867,1.752,5.39l23.394,29.199l-13.227,34.999C480.951,254.993,480.951,257.008,481.641,258.834z"/>
    <path d="M406.634,117.574c-1.995-2.172-4.064-4.332-6.153-6.42c-2.089-2.088-4.248-4.158-6.42-6.153c-3.261-2.994-8.332-2.778-11.327,0.484c-2.994,3.261-2.778,8.333,0.484,11.327c2.003,1.84,3.997,3.75,5.925,5.678c1.927,1.927,3.838,3.922,5.679,5.926c1.581,1.722,3.741,2.595,5.908,2.595c1.937,0,3.88-0.698,5.419-2.111C409.411,125.907,409.628,120.835,406.634,117.574z"/>
    <path d="M365.592,83.125c-38.66-24.63-85.206-35.576-131.059-30.829c-46.525,4.82-90.395,25.722-123.531,58.857c-36.467,36.467-57.699,84.911-59.785,136.408C49.144,298.755,66.1,348.459,98.963,387.515c1.585,1.884,3.853,2.855,6.139,2.855c1.822,0,3.654-0.618,5.157-1.882c3.387-2.851,3.823-7.908,0.973-11.295c-30.281-35.989-45.905-81.795-43.995-128.982c1.922-47.462,21.49-92.11,55.101-125.72c30.54-30.541,70.972-49.806,113.846-54.247c42.275-4.38,85.171,5.709,120.792,28.403c3.735,2.379,8.689,1.281,11.068-2.453C370.424,90.459,369.325,85.504,365.592,83.125z"/>
    <path d="M428.511,146.043c-2.379-3.735-7.337-4.833-11.069-2.454c-3.735,2.379-4.832,7.335-2.453,11.068c22.694,35.622,32.781,78.52,28.403,120.792c-4.441,42.874-23.706,83.305-54.246,113.847c-33.611,33.61-78.259,53.179-125.72,55.101c-47.179,1.918-92.994-13.713-128.982-43.993c-3.387-2.851-8.444-2.415-11.295,0.973c-2.851,3.387-2.415,8.444,0.973,11.295c36.921,31.065,83.351,47.917,131.566,47.916c2.789,0,5.589-0.057,8.389-0.17c51.497-2.085,99.94-23.317,136.408-59.784c33.136-33.136,54.039-77.007,58.857-123.532C464.09,231.246,453.141,184.702,428.511,146.043z"/>
  </g>
</symbol><symbol id="search-icon" viewBox="0 0 32 33">
    <path fill-rule="evenodd" stroke-linecap="round" stroke-linejoin="round" stroke-width="2" d="M29.99 29.768l-1.216 1.222-9.796-9.842a11.094 11.094 0 0 1-6.791 2.321C6.009 23.469 1 18.439 1 12.234 1 6.03 6.009 1 12.187 1c6.179 0 11.188 5.03 11.188 11.234a11.21 11.21 0 0 1-3.112 7.762l9.727 9.772z"/>
</symbol><symbol id="telega" viewBox="0 0 2.9 2.9">
  <g fill="none" stroke-width="0.07" stroke-miterlimit="22.9256">
    <path d="M2.17 0.7l-1.71 0.67c-0.06,0.02 -0.05,0.1 0,0.12l0.44 0.13 0.16 0.51c0.02,0.05 0.08,0.07 0.12,0.03l0.23 -0.23 0.44 0.32c0.05,0.04 0.13,0.01 0.14,-0.05l0.3 -1.4c0.01,-0.06 -0.06,-0.12 -0.12,-0.1zm-0.22 0.31l-0.79 0.71c-0.01,0 -0.01,0.01 -0.01,0.02l-0.04 0.27c0,0.01 -0.01,0.01 -0.01,0.01l-0.13 -0.41c0,-0.02 0,-0.04 0.02,-0.05l0.94 -0.58c0.02,-0.01 0.04,0.02 0.02,0.03z"/>
    <circle cx="1.45" cy="1.45" r="1.42"/>
  </g>
</symbol><symbol id="vimeo-icon" viewBox="0 0 508.52 508.52">
    <path fill="#010002" d="M254.26 0C113.845 0 0 113.845 0 254.26s113.845 254.26 254.26 254.26 254.26-113.845 254.26-254.26C508.52 113.813 394.675 0 254.26 0zm151.03 185.069c-17.067 96.047-112.319 177.378-140.955 195.939-28.668 18.561-54.793-7.437-64.296-27.142-10.838-22.375-43.351-144.038-51.869-154.113-8.518-10.075-34.071 10.075-34.071 10.075l-12.395-16.241s51.901-61.944 91.375-69.731c41.858-8.232 41.794 64.296 51.869 104.533 9.757 38.934 16.273 61.181 24.79 61.181 8.518 0 24.822-21.676 42.589-54.952 17.862-33.308-.763-62.739-35.628-41.826 13.984-83.619 145.627-103.737 128.591-7.723z"/>
</symbol><symbol id="vimeo" viewBox="0 0 3.15 3.15">
 <g fill="none" stroke-width="0.07" stroke-miterlimit="22.9256">
  <path d="M0.54 1.25l0.1 0.13c0,0 0.13,-0.1 0.17,-0.1 0.03,0 0.09,0.03 0.12,0.14 0.04,0.11 0.19,0.69 0.2,0.71 0.05,0.12 0.1,0.34 0.27,0.37 0.18,0.03 0.39,-0.14 0.51,-0.27 0.12,-0.13 0.6,-0.67 0.62,-1 0.02,-0.3 -0.08,-0.37 -0.13,-0.4 -0.08,-0.05 -0.21,-0.07 -0.34,-0.02 -0.13,0.04 -0.32,0.19 -0.37,0.44 0,0 0.17,-0.06 0.23,0 0.07,0.06 0.05,0.2 0,0.3 -0.06,0.1 -0.21,0.33 -0.27,0.34 -0.05,0.01 -0.1,-0.1 -0.1,-0.13 -0.01,-0.03 -0.1,-0.44 -0.14,-0.67 -0.03,-0.24 -0.18,-0.28 -0.25,-0.28 -0.08,0 -0.2,0.06 -0.62,0.44z"/>
  <circle cx="1.57" cy="1.57" r="1.54"/>
 </g>
</symbol><symbol id="vk" viewBox="0 0 2.4 2.4">
  <g fill="none" stroke-width="0.05" stroke-miterlimit="22.9256">
    <path d="M2.04 1.59c0,-0.01 -0.01,-0.01 -0.01,-0.01 -0.03,-0.05 -0.08,-0.12 -0.17,-0.2l0 0 0 0 0 0 0 0c-0.04,-0.04 -0.06,-0.06 -0.07,-0.07 -0.02,-0.03 -0.03,-0.05 -0.02,-0.07 0.01,-0.02 0.04,-0.06 0.08,-0.12 0.03,-0.03 0.05,-0.06 0.06,-0.07 0.1,-0.14 0.15,-0.23 0.13,-0.26l0 -0.01c-0.01,-0.01 -0.01,-0.01 -0.03,-0.02 -0.01,0 -0.03,0 -0.06,0l-0.25 0c0,0 -0.01,0 -0.02,0 0,0 -0.01,0.01 -0.01,0.01l0 0 -0.01 0c0,0 0,0.01 -0.01,0.01 0,0 0,0.01 0,0.02 -0.03,0.07 -0.06,0.13 -0.1,0.19 -0.02,0.04 -0.04,0.07 -0.06,0.1 -0.02,0.03 -0.03,0.04 -0.04,0.06 -0.02,0.01 -0.03,0.02 -0.04,0.03 -0.01,0.01 -0.02,0.01 -0.02,0.01 -0.01,0 -0.01,0 -0.02,-0.01 0,0 -0.01,-0.01 -0.02,-0.02 0,-0.01 0,-0.02 -0.01,-0.03 0,-0.02 0,-0.03 0,-0.04 0,-0.01 0,-0.02 0,-0.04 0,-0.02 0,-0.03 0,-0.04 0,-0.02 0,-0.04 0,-0.07 0,-0.03 0.01,-0.05 0.01,-0.06 0,-0.02 0,-0.03 0,-0.05 0,-0.02 0,-0.03 -0.01,-0.04 0,-0.01 0,-0.02 -0.01,-0.03 0,-0.01 -0.01,-0.01 -0.01,-0.02 -0.01,0 -0.02,-0.01 -0.03,-0.01 -0.03,-0.01 -0.07,-0.01 -0.12,-0.01 -0.11,0 -0.18,0 -0.21,0.02 -0.02,0 -0.03,0.01 -0.04,0.02 -0.01,0.02 -0.01,0.02 0,0.03 0.03,0 0.06,0.01 0.07,0.03l0.01 0.01c0,0.01 0.01,0.03 0.01,0.04 0.01,0.02 0.01,0.05 0.01,0.07 0,0.04 0,0.08 0,0.11 0,0.03 -0.01,0.05 -0.01,0.07 0,0.02 -0.01,0.03 -0.01,0.04 -0.01,0.01 -0.01,0.02 -0.01,0.02 0,0 0,0.01 -0.01,0.01 0,0 -0.01,0 -0.02,0 -0.01,0 -0.02,0 -0.03,-0.01 -0.01,-0.01 -0.02,-0.02 -0.04,-0.04 -0.01,-0.01 -0.02,-0.03 -0.04,-0.06 -0.01,-0.02 -0.03,-0.05 -0.05,-0.09l-0.01 -0.02c-0.01,-0.02 -0.02,-0.04 -0.04,-0.08 -0.01,-0.03 -0.03,-0.06 -0.04,-0.09 0,-0.01 -0.01,-0.02 -0.02,-0.03l0 0c-0.01,0 -0.01,0 -0.02,-0.01 -0.01,0 -0.01,0 -0.02,0l-0.24 0c-0.03,0 -0.04,0.01 -0.05,0.02l0 0c-0.01,0.01 -0.01,0.01 -0.01,0.02 0,0 0,0.01 0.01,0.02 0.03,0.08 0.07,0.16 0.11,0.24 0.04,0.08 0.08,0.14 0.11,0.19 0.03,0.04 0.06,0.09 0.09,0.13 0.04,0.04 0.06,0.07 0.07,0.08 0.01,0.01 0.02,0.02 0.02,0.03l0.02 0.02c0.02,0.01 0.04,0.03 0.07,0.05 0.02,0.02 0.05,0.04 0.09,0.06 0.03,0.02 0.07,0.03 0.11,0.04 0.05,0.02 0.09,0.02 0.13,0.02l0.1 0c0.02,0 0.04,-0.01 0.05,-0.02l0 -0.01c0.01,0 0.01,-0.01 0.01,-0.01 0,-0.01 0,-0.02 0,-0.03 0,-0.02 0,-0.04 0.01,-0.07 0,-0.02 0.01,-0.03 0.01,-0.04 0.01,-0.01 0.02,-0.02 0.02,-0.03 0.01,0 0.01,-0.01 0.02,-0.01 0,0 0,0 0,0 0.02,-0.01 0.04,0 0.05,0.01 0.02,0.01 0.04,0.03 0.06,0.05 0.02,0.02 0.04,0.05 0.06,0.07 0.02,0.03 0.04,0.04 0.06,0.06l0.02 0.01c0.01,0 0.03,0.01 0.04,0.02 0.02,0 0.04,0 0.05,0l0.23 0c0.02,0 0.04,-0.01 0.05,-0.01 0.01,-0.01 0.02,-0.02 0.02,-0.03 0.01,-0.01 0.01,-0.02 0,-0.03 0,-0.01 0,-0.02 0,-0.02z"/>
    <circle cx="1.2" cy="1.2" r="1.17"/>
  </g>
</symbol></svg>