<svg xmlns="http://www.w3.org/2000/svg" xml:space="preserve" width="104px" height="104px" version="1.1" viewBox="0 0 2.9 2.9" xmlns:xlink="http://www.w3.org/1999/xlink">
  <g fill="none" stroke-width="0.07" stroke-miterlimit="22.9256">
    <path d="M2.17 0.7l-1.71 0.67c-0.06,0.02 -0.05,0.1 0,0.12l0.44 0.13 0.16 0.51c0.02,0.05 0.08,0.07 0.12,0.03l0.23 -0.23 0.44 0.32c0.05,0.04 0.13,0.01 0.14,-0.05l0.3 -1.4c0.01,-0.06 -0.06,-0.12 -0.12,-0.1zm-0.22 0.31l-0.79 0.71c-0.01,0 -0.01,0.01 -0.01,0.02l-0.04 0.27c0,0.01 -0.01,0.01 -0.01,0.01l-0.13 -0.41c0,-0.02 0,-0.04 0.02,-0.05l0.94 -0.58c0.02,-0.01 0.04,0.02 0.02,0.03z"/>
    <circle cx="1.45" cy="1.45" r="1.42"/>
  </g>
</svg>