<svg xmlns="http://www.w3.org/2000/svg" viewBox="0 0 508.52 508.52">
    <path fill="#010002" d="M254.26 0C113.845 0 0 113.845 0 254.26s113.845 254.26 254.26 254.26 254.26-113.845 254.26-254.26C508.52 113.813 394.675 0 254.26 0zm151.03 185.069c-17.067 96.047-112.319 177.378-140.955 195.939-28.668 18.561-54.793-7.437-64.296-27.142-10.838-22.375-43.351-144.038-51.869-154.113-8.518-10.075-34.071 10.075-34.071 10.075l-12.395-16.241s51.901-61.944 91.375-69.731c41.858-8.232 41.794 64.296 51.869 104.533 9.757 38.934 16.273 61.181 24.79 61.181 8.518 0 24.822-21.676 42.589-54.952 17.862-33.308-.763-62.739-35.628-41.826 13.984-83.619 145.627-103.737 128.591-7.723z"/>
</svg>
