<svg xmlns="http://www.w3.org/2000/svg" xml:space="preserve" width="104px" height="104px" version="1.1" viewBox="0 0 3.15 3.15" xmlns:xlink="http://www.w3.org/1999/xlink">
 <g fill="none" stroke="#282627" stroke-width="0.07" stroke-miterlimit="22.9256">
  <path d="M0.54 1.25l0.1 0.13c0,0 0.13,-0.1 0.17,-0.1 0.03,0 0.09,0.03 0.12,0.14 0.04,0.11 0.19,0.69 0.2,0.71 0.05,0.12 0.1,0.34 0.27,0.37 0.18,0.03 0.39,-0.14 0.51,-0.27 0.12,-0.13 0.6,-0.67 0.62,-1 0.02,-0.3 -0.08,-0.37 -0.13,-0.4 -0.08,-0.05 -0.21,-0.07 -0.34,-0.02 -0.13,0.04 -0.32,0.19 -0.37,0.44 0,0 0.17,-0.06 0.23,0 0.07,0.06 0.05,0.2 0,0.3 -0.06,0.1 -0.21,0.33 -0.27,0.34 -0.05,0.01 -0.1,-0.1 -0.1,-0.13 -0.01,-0.03 -0.1,-0.44 -0.14,-0.67 -0.03,-0.24 -0.18,-0.28 -0.25,-0.28 -0.08,0 -0.2,0.06 -0.62,0.44z"/>
  <circle cx="1.57" cy="1.57" r="1.54"/>
 </g>
</svg>