<svg xmlns="http://www.w3.org/2000/svg" xml:space="preserve" width="104px" height="104px" version="1.1" viewBox="0 0 2.4 2.4" xmlns:xlink="http://www.w3.org/1999/xlink">
  <g fill="none" stroke="#282627" stroke-width="0.05" stroke-miterlimit="22.9256">
    <path d="M2.04 1.59c0,-0.01 -0.01,-0.01 -0.01,-0.01 -0.03,-0.05 -0.08,-0.12 -0.17,-0.2l0 0 0 0 0 0 0 0c-0.04,-0.04 -0.06,-0.06 -0.07,-0.07 -0.02,-0.03 -0.03,-0.05 -0.02,-0.07 0.01,-0.02 0.04,-0.06 0.08,-0.12 0.03,-0.03 0.05,-0.06 0.06,-0.07 0.1,-0.14 0.15,-0.23 0.13,-0.26l0 -0.01c-0.01,-0.01 -0.01,-0.01 -0.03,-0.02 -0.01,0 -0.03,0 -0.06,0l-0.25 0c0,0 -0.01,0 -0.02,0 0,0 -0.01,0.01 -0.01,0.01l0 0 -0.01 0c0,0 0,0.01 -0.01,0.01 0,0 0,0.01 0,0.02 -0.03,0.07 -0.06,0.13 -0.1,0.19 -0.02,0.04 -0.04,0.07 -0.06,0.1 -0.02,0.03 -0.03,0.04 -0.04,0.06 -0.02,0.01 -0.03,0.02 -0.04,0.03 -0.01,0.01 -0.02,0.01 -0.02,0.01 -0.01,0 -0.01,0 -0.02,-0.01 0,0 -0.01,-0.01 -0.02,-0.02 0,-0.01 0,-0.02 -0.01,-0.03 0,-0.02 0,-0.03 0,-0.04 0,-0.01 0,-0.02 0,-0.04 0,-0.02 0,-0.03 0,-0.04 0,-0.02 0,-0.04 0,-0.07 0,-0.03 0.01,-0.05 0.01,-0.06 0,-0.02 0,-0.03 0,-0.05 0,-0.02 0,-0.03 -0.01,-0.04 0,-0.01 0,-0.02 -0.01,-0.03 0,-0.01 -0.01,-0.01 -0.01,-0.02 -0.01,0 -0.02,-0.01 -0.03,-0.01 -0.03,-0.01 -0.07,-0.01 -0.12,-0.01 -0.11,0 -0.18,0 -0.21,0.02 -0.02,0 -0.03,0.01 -0.04,0.02 -0.01,0.02 -0.01,0.02 0,0.03 0.03,0 0.06,0.01 0.07,0.03l0.01 0.01c0,0.01 0.01,0.03 0.01,0.04 0.01,0.02 0.01,0.05 0.01,0.07 0,0.04 0,0.08 0,0.11 0,0.03 -0.01,0.05 -0.01,0.07 0,0.02 -0.01,0.03 -0.01,0.04 -0.01,0.01 -0.01,0.02 -0.01,0.02 0,0 0,0.01 -0.01,0.01 0,0 -0.01,0 -0.02,0 -0.01,0 -0.02,0 -0.03,-0.01 -0.01,-0.01 -0.02,-0.02 -0.04,-0.04 -0.01,-0.01 -0.02,-0.03 -0.04,-0.06 -0.01,-0.02 -0.03,-0.05 -0.05,-0.09l-0.01 -0.02c-0.01,-0.02 -0.02,-0.04 -0.04,-0.08 -0.01,-0.03 -0.03,-0.06 -0.04,-0.09 0,-0.01 -0.01,-0.02 -0.02,-0.03l0 0c-0.01,0 -0.01,0 -0.02,-0.01 -0.01,0 -0.01,0 -0.02,0l-0.24 0c-0.03,0 -0.04,0.01 -0.05,0.02l0 0c-0.01,0.01 -0.01,0.01 -0.01,0.02 0,0 0,0.01 0.01,0.02 0.03,0.08 0.07,0.16 0.11,0.24 0.04,0.08 0.08,0.14 0.11,0.19 0.03,0.04 0.06,0.09 0.09,0.13 0.04,0.04 0.06,0.07 0.07,0.08 0.01,0.01 0.02,0.02 0.02,0.03l0.02 0.02c0.02,0.01 0.04,0.03 0.07,0.05 0.02,0.02 0.05,0.04 0.09,0.06 0.03,0.02 0.07,0.03 0.11,0.04 0.05,0.02 0.09,0.02 0.13,0.02l0.1 0c0.02,0 0.04,-0.01 0.05,-0.02l0 -0.01c0.01,0 0.01,-0.01 0.01,-0.01 0,-0.01 0,-0.02 0,-0.03 0,-0.02 0,-0.04 0.01,-0.07 0,-0.02 0.01,-0.03 0.01,-0.04 0.01,-0.01 0.02,-0.02 0.02,-0.03 0.01,0 0.01,-0.01 0.02,-0.01 0,0 0,0 0,0 0.02,-0.01 0.04,0 0.05,0.01 0.02,0.01 0.04,0.03 0.06,0.05 0.02,0.02 0.04,0.05 0.06,0.07 0.02,0.03 0.04,0.04 0.06,0.06l0.02 0.01c0.01,0 0.03,0.01 0.04,0.02 0.02,0 0.04,0 0.05,0l0.23 0c0.02,0 0.04,-0.01 0.05,-0.01 0.01,-0.01 0.02,-0.02 0.02,-0.03 0.01,-0.01 0.01,-0.02 0,-0.03 0,-0.01 0,-0.02 0,-0.02z"/>
    <circle cx="1.2" cy="1.2" r="1.17"/>
  </g>
</svg>